<?xml version="1.0" encoding="UTF-8"?>
<svg version="1.1"
     width="640" height="520"
     xmlns="http://www.w3.org/2000/svg">
  <g id="krebs" transform="scale(40)" fill="#E4002B">
    <polygon points="
       1,0   2,0
       2,3   3,3
       3,0   4,0
       4,5   3,5
       3,6   5,6
       5,5   6,5
       6,4   7,4
       7,3   6,3
       6,1   8,1
       8,4  10,4
      10,3   9,3
       9,1  11,1
      11,5  12,5
      12,6  14,6
      14,5  13,5
      13,3  12,3
      12,1  13,1
      13,0  14,0
      14,3  15,3
      15,0  16,0
      16,5  15,5
      15,7  12,7
      12,8  14,8
      14,10 15,10
      15,13 14,13
      14,10 13,10
      13,9  10,9
      10,13  9,13
       9,10  8,10
       8,13  7,13
       7,9   4,9
       4,10  3,10
       3,13  2,13
       2,10  3,10
       3,8   5,8
       5,7   2,7
       2,5   1,5
       1,3   0,3
       0,1   1,1
    "/>
    <polygon points="
       5,10  6,10
       6,13  4,13
       4,12  5,12
    "/>
    <polygon points="
      11,10 12,10
      12,12 13,12
      13,13 11,13
    "/>
  </g>
</svg>
