<?xml version="1.0" encoding="UTF-8" standalone="no"?>
<!-- Created with Inkscape (http://www.inkscape.org/) -->

<svg
   xmlns:dc="http://purl.org/dc/elements/1.1/"
   xmlns:cc="http://creativecommons.org/ns#"
   xmlns:rdf="http://www.w3.org/1999/02/22-rdf-syntax-ns#"
   xmlns:svg="http://www.w3.org/2000/svg"
   xmlns="http://www.w3.org/2000/svg"
   xmlns:sodipodi="http://sodipodi.sourceforge.net/DTD/sodipodi-0.dtd"
   xmlns:inkscape="http://www.inkscape.org/namespaces/inkscape"
   id="svg2876"
   version="1.1"
   inkscape:version="0.47 r22583"
   width="891"
   height="743"
   sodipodi:docname="Screen Shot 2011-08-04 at 04.13.20.png">
  <metadata
     id="metadata2882">
    <rdf:RDF>
      <cc:Work
         rdf:about="">
        <dc:format>image/svg+xml</dc:format>
        <dc:type
           rdf:resource="http://purl.org/dc/dcmitype/StillImage" />
        <dc:title></dc:title>
      </cc:Work>
    </rdf:RDF>
  </metadata>
  <defs
     id="defs2880">
    <inkscape:perspective
       sodipodi:type="inkscape:persp3d"
       inkscape:vp_x="0 : 0.5 : 1"
       inkscape:vp_y="0 : 1000 : 0"
       inkscape:vp_z="1 : 0.5 : 1"
       inkscape:persp3d-origin="0.5 : 0.33333333 : 1"
       id="perspective2884" />
  </defs>
  <sodipodi:namedview
     pagecolor="#ffffff"
     bordercolor="#666666"
     borderopacity="1"
     objecttolerance="10"
     gridtolerance="10"
     guidetolerance="10"
     inkscape:pageopacity="0"
     inkscape:pageshadow="2"
     inkscape:window-width="1436"
     inkscape:window-height="856"
     id="namedview2878"
     showgrid="false"
     inkscape:snap-to-guides="true"
     inkscape:snap-grids="true"
     inkscape:snap-bbox="true"
     inkscape:zoom="0.81830417"
     inkscape:cx="445.5"
     inkscape:cy="371.5"
     inkscape:window-x="4"
     inkscape:window-y="0"
     inkscape:window-maximized="1"
     inkscape:current-layer="svg2876" />
  <path
     style="fill:#e4002b;fill-opacity:1"
     d="m 244.0219,617.03493 c -0.21558,-0.56245 -0.27058,-11.13745 -0.12223,-23.5 l 0.26974,-22.47737 22,-0.5 22,-0.5 0.26031,-44.76841 0.26031,-44.7684 23.23969,0.2684 23.23969,0.26841 0.257,67.7787 c 0.20362,53.70074 -0.004,67.87425 -1,68.23871 -2.76038,1.01019 -90.01678,0.97154 -90.40451,-0.04 z"
     id="path3699" />
  <path
     style="fill:#e4002b;fill-opacity:1"
     d="m 382.14297,617.3264 c -0.26297,-0.69786 -0.5896,-41.99384 -0.72584,-91.76884 l -0.24772,-90.5 -68,0 -68,0 -0.5,22.5 -0.5,22.5 -21.97012,0.27012 c -13.36172,0.16427 -22.37364,0.67349 -23,1.29959 -0.67593,0.67568 -1.20172,24.12474 -1.52988,68.22989 l -0.5,67.2004 -21.93,0.27 c -12.06149,0.14851 -22.28992,-0.0899 -22.72984,-0.52984 -0.43992,-0.43992 -0.82782,-31.38642 -0.86202,-68.77 l -0.0622,-67.97016 22.79201,-0.5 22.79201,-0.5 0.5,-46 0.5,-46 45,-0.5 45,-0.5 0,-22 0,-22 -68.5,-0.5 -68.5,-0.5 -0.26044,-44.96044 c -0.1701,-29.364 -0.62018,-45.32106 -1.29748,-46 -0.61887,-0.62038 -9.58642,-1.24117 -22.23955,-1.53956 l -21.20253,-0.5 -0.5,-44.20083 c -0.32035,-28.31979 -0.87003,-44.57056 -1.52988,-45.22989 -0.62605,-0.62554 -9.644729,-1.13497 -23.000009,-1.29916 l -21.97011,-0.27012 0,-46.49999 0,-46.500003 22.5,-0.5 22.499999,-0.5 0.5,-22.5 0.5,-22.500001 23,0 23,0 0.5,69.000001 0.5,68.999993 22.5,0 22.5,0 0.5,-68.999993 0.5,-69.000001 22.5,0 22.5,0 0,114.999994 0,115 -21.20253,0.5 c -13.06388,0.30807 -21.61243,0.91088 -22.27041,1.57041 -0.70812,0.7098 -0.97678,8.28986 -0.79747,22.5 l 0.27041,21.42959 43.93935,0.26065 c 29.90385,0.17739 44.27815,-0.0774 45,-0.79755 0.64951,-0.64801 1.25447,-9.47074 1.56065,-22.76065 l 0.5,-21.70245 21.20125,-0.5 c 15.49421,-0.36541 21.55085,-0.8496 22.5,-1.79875 0.94915,-0.94915 1.43334,-7.00579 1.79875,-22.5 l 0.5,-21.20125 21.4221,-0.27039 c 13.74507,-0.17349 21.89799,-0.66533 22.75,-1.37244 1.86497,-1.54779 1.93794,-42.34431 0.0779,-43.54815 -0.6875,-0.44496 -10.925,-1.03402 -22.75,-1.30902 l -21.5,-0.5 -0.26043,-44.93956 c -0.14323,-24.716769 0.0913,-45.291272 0.52112,-45.721122 0.42985,-0.42985 21.24704,-0.821311 46.26043,-0.869914 l 45.47888,-0.08837 0.5,68.309476 0.5,68.30949 45.5,0 45.5,0 0,-21.5 0,-21.5 -23,-0.5 -23,-0.5 0,-46.49999 0,-46.500005 46.5,0 46.5,0 0.25532,90.903935 c 0.1807,64.33897 0.57702,91.29158 1.35619,92.23042 0.83731,1.0089 6.16306,1.39102 22.24469,1.59606 l 21.1438,0.26958 0.5,21.70245 c 0.30615,13.2884 0.91117,22.11267 1.56054,22.76054 0.72197,0.7203 15.24754,0.97491 45.5,0.79755 l 44.43946,-0.26054 0.27041,-21.42959 c 0.17932,-14.2111 -0.0893,-21.79015 -0.79755,-22.5 -0.66039,-0.66191 -9.35028,-1.26123 -22.77041,-1.57041 l -21.70245,-0.5 -0.5,-44.20083 c -0.32022,-28.30803 -0.87016,-44.57069 -1.52947,-45.22947 -0.62361,-0.62311 -9.494,-1.13529 -22.5,-1.29917 l -21.47053,-0.27053 0,-46.49999 0,-46.500005 22,-0.5 22,-0.5 0.5,-22.5 0.5,-22.500001 23.5,0 23.5,0 0.5,69.000001 0.5,68.999995 22,0 22,0 0.5,-68.999995 0.5,-69.000001 23,0 23,0 0,115.499996 0,115.5 -22.5,0.5 -22.5,0.5 -0.5,45.5 -0.5,45.5 -68.5,0.5 -68.5,0.5 0,22 0,22 45.5,0.5 45.5,0.5 0.5,46 0.5,46 22.5,0.5 22.5,0.5 0,69 0,69 -23,0 -23,0 -0.25705,-67.95705 c -0.17172,-45.39696 -0.60248,-68.30329 -1.29755,-69 -0.62555,-0.62702 -9.69546,-1.24235 -22.74295,-1.54295 l -21.70245,-0.5 -0.27081,-20.92262 c -0.17312,-13.3749 -0.66822,-21.40146 -1.37245,-22.25 -1.53612,-1.85091 -133.80901,-1.97511 -135.65674,-0.12738 -0.9155,0.9155 -1.2,22.47577 -1.2,90.94098 0,49.35754 -0.36973,89.96949 -0.82162,90.24878 -0.45189,0.27928 -10.91439,0.58003 -23.25,0.66833 l -22.42838,0.16054 -0.5,-68.35931 -0.5,-68.35932 -22,0 -22,0 -0.5,68.5 -0.5,68.5 -22.77416,0.26884 c -17.67944,0.20869 -22.88111,-0.015 -23.25228,-1 z"
     id="path3697" />
  <path
     style="fill:#e4002b;fill-opacity:1"
     d="m 567.13302,617.3174 c -0.2648,-0.69275 -0.36494,-31.85984 -0.22253,-69.25984 l 0.25892,-68 23,0 23,0 0.5,45 0.5,45 22,0.5 22,0.5 0,23.5 0,23.5 -45.27747,0.26021 c -35.68808,0.2051 -45.37943,-0.007 -45.75892,-1 z"
     id="path2921" />
</svg>
