<?xml version="1.0" encoding="UTF-8" standalone="no"?>
<!-- Created with Inkscape (http://www.inkscape.org/) -->

<svg
   xmlns:dc="http://purl.org/dc/elements/1.1/"
   xmlns:cc="http://creativecommons.org/ns#"
   xmlns:rdf="http://www.w3.org/1999/02/22-rdf-syntax-ns#"
   xmlns:svg="http://www.w3.org/2000/svg"
   xmlns="http://www.w3.org/2000/svg"
   xmlns:sodipodi="http://sodipodi.sourceforge.net/DTD/sodipodi-0.dtd"
   xmlns:inkscape="http://www.inkscape.org/namespaces/inkscape"
   width="219.5415mm"
   height="369.34967mm"
   viewBox="0 0 219.5415 369.34967"
   version="1.1"
   id="svg5597"
   inkscape:version="0.92.4 (5da689c313, 2019-01-14)"
   sodipodi:docname="krebs-nix-v1.svg">
  <defs
     id="defs5591" />
  <sodipodi:namedview
     id="base"
     pagecolor="#ffffff"
     bordercolor="#666666"
     borderopacity="1.0"
     inkscape:pageopacity="0.0"
     inkscape:pageshadow="2"
     inkscape:zoom="0.35"
     inkscape:cx="-96.546974"
     inkscape:cy="649.4122"
     inkscape:document-units="mm"
     inkscape:current-layer="layer1"
     showgrid="false"
     fit-margin-left="-2.7755576e-17"
     fit-margin-top="0"
     fit-margin-right="0"
     fit-margin-bottom="0"
     inkscape:window-width="1366"
     inkscape:window-height="746"
     inkscape:window-x="0"
     inkscape:window-y="22"
     inkscape:window-maximized="0" />
  <metadata
     id="metadata5594">
    <rdf:RDF>
      <cc:Work
         rdf:about="">
        <dc:format>image/svg+xml</dc:format>
        <dc:type
           rdf:resource="http://purl.org/dc/dcmitype/StillImage" />
        <dc:title></dc:title>
      </cc:Work>
    </rdf:RDF>
  </metadata>
  <g
     inkscape:label="Layer 1"
     inkscape:groupmode="layer"
     id="layer1"
     transform="translate(-2.8661488,18.454598)">
    <g
       id="g4918"
       transform="matrix(3.3535456,0.01307514,-0.01307514,3.3535456,-459.71472,-35.679504)"
       style="fill:#e4002b;fill-opacity:1;stroke-width:7.15655041;stroke-miterlimit:4;stroke-dasharray:none">
      <path
         id="path3699"
         d="m 154.56673,114.40556 c -0.0191,-0.0497 -0.0239,-0.98455 -0.0108,-2.07739 l 0.0239,-1.98698 1.94478,-0.0442 1.94479,-0.0442 0.023,-3.9575 0.023,-3.95749 2.05437,0.0237 2.05437,0.0237 0.0227,5.99159 c 0.018,4.74711 -3.5e-4,6.00004 -0.0884,6.03226 -0.24401,0.0893 -7.95742,0.0859 -7.99169,-0.004 z"
         style="fill:#e4002b;fill-opacity:1;stroke-width:7.15655041;stroke-miterlimit:4;stroke-dasharray:none"
         inkscape:connector-curvature="0" />
      <path
         id="path3697-0"
         d="m 166.77653,114.43132 c -0.0232,-0.0617 -0.0521,-3.71222 -0.0642,-8.1123 l -0.0219,-8.000137 h -6.01115 -6.01115 l -0.0442,1.988987 -0.0442,1.98898 -1.94215,0.0239 c -1.18116,0.0145 -1.97781,0.0595 -2.03318,0.11488 -0.0598,0.0597 -0.10623,2.13261 -0.13524,6.03148 l -0.0442,5.94047 -1.9386,0.0239 c -1.06622,0.0131 -1.97041,-0.008 -2.0093,-0.0468 -0.0389,-0.0389 -0.0732,-2.77454 -0.0762,-6.07922 l -0.006,-6.00852 2.0148,-0.0442 2.0148,-0.0442 0.0442,-4.066366 0.0442,-4.066368 3.97796,-0.0442 3.97797,-0.0442 v -1.944785 -1.944785 l -6.05535,-0.0442 -6.05535,-0.0442 -0.023,-3.974472 c -0.015,-2.595757 -0.0548,-4.00635 -0.1147,-4.066368 -0.0547,-0.05484 -0.84743,-0.109719 -1.96596,-0.136096 l -1.87429,-0.0442 -0.0442,-3.907323 c -0.0283,-2.50345 -0.0769,-3.940006 -0.13524,-3.998291 -0.0553,-0.0553 -0.85259,-0.10033 -2.03319,-0.114845 l -1.94214,-0.02388 V 69.633308 65.52274 l 1.98899,-0.0442 1.98898,-0.0442 0.0442,-1.988984 0.0442,-1.988985 h 2.03318 2.03319 l 0.0442,6.099553 0.0442,6.099552 h 1.98898 1.98899 l 0.0442,-6.099552 0.0442,-6.099553 h 1.98898 1.98898 v 10.16592 10.165921 l -1.87428,0.0442 c -1.15484,0.02723 -1.91053,0.08052 -1.96869,0.138823 -0.0626,0.06275 -0.0864,0.732818 -0.0705,1.988984 l 0.0239,1.894361 3.88421,0.02304 c 2.64348,0.01568 3.91416,-0.0068 3.97797,-0.0705 0.0574,-0.05728 0.1109,-0.837207 0.13796,-2.012026 l 0.0442,-1.918482 1.87418,-0.0442 c 1.36968,-0.0323 1.90508,-0.0751 1.98898,-0.159008 0.0839,-0.08391 0.12671,-0.619307 0.15901,-1.988985 l 0.0442,-1.874176 1.8937,-0.0239 c 1.21505,-0.01534 1.93577,-0.05881 2.01108,-0.121323 0.16487,-0.136823 0.17132,-3.743208 0.007,-3.849626 -0.0608,-0.03933 -0.96576,-0.09141 -2.01108,-0.115717 l -1.90059,-0.0442 -0.023,-3.972626 c -0.0127,-2.184946 0.008,-4.003718 0.0461,-4.041716 0.038,-0.038 1.87822,-0.0726 4.08939,-0.0769 l 4.0203,-0.0078 0.0442,6.038511 0.0442,6.038512 h 4.02216 4.02217 v -1.900586 -1.900585 l -2.03318,-0.0442 -2.03318,-0.0442 V 69.633308 65.52274 h 4.11056 4.11057 l 0.0226,8.035845 c 0.016,5.68752 0.051,8.070112 0.11989,8.153105 0.074,0.08919 0.54481,0.122965 1.96641,0.141091 l 1.8691,0.02383 0.0442,1.918482 c 0.0271,1.174685 0.0805,1.954745 0.13795,2.012016 0.0638,0.06367 1.34787,0.08618 4.02217,0.0705 l 3.92842,-0.02303 0.0239,-1.894361 c 0.0159,-1.256251 -0.008,-1.926234 -0.0705,-1.988984 -0.0584,-0.05851 -0.82656,-0.111492 -2.01289,-0.138823 l -1.91848,-0.0442 -0.0442,-3.907323 c -0.0283,-2.50241 -0.0769,-3.940018 -0.13521,-3.998254 -0.0551,-0.05508 -0.83926,-0.100359 -1.98898,-0.114845 l -1.89798,-0.02392 V 69.633308 65.52274 l 1.94478,-0.0442 1.94479,-0.0442 0.0442,-1.988984 0.0442,-1.988985 h 2.07738 2.07739 l 0.0442,6.099553 0.0442,6.099552 h 1.94478 1.94478 l 0.0442,-6.099552 0.0442,-6.099553 h 2.03319 2.03318 v 10.21012 10.21012 l -1.98898,0.0442 -1.98899,0.0442 -0.0442,4.022168 -0.0442,4.022169 -6.05535,0.0442 -6.05535,0.0442 v 1.944785 1.944785 l 4.02217,0.0442 4.02217,0.0442 0.0442,4.066368 0.0442,4.066364 1.98898,0.0442 1.98898,0.0442 v 6.09955 6.09956 h -2.03318 -2.03318 l -0.0227,-6.00736 c -0.0152,-4.01306 -0.0533,-6.03796 -0.1147,-6.09955 -0.0553,-0.0554 -0.85707,-0.10982 -2.01046,-0.1364 l -1.91848,-0.0442 -0.0239,-1.84954 c -0.0153,-1.182332 -0.0591,-1.891875 -0.12133,-1.966885 -0.13579,-0.163619 -11.82862,-0.174598 -11.99196,-0.01126 -0.0809,0.08093 -0.10608,1.986845 -0.10608,8.039115 0,4.36317 -0.0327,7.95324 -0.0726,7.97793 -0.0399,0.0247 -0.96482,0.0513 -2.05528,0.0591 l -1.98265,0.0142 -0.0442,-6.04291 -0.0442,-6.04292 h -1.94479 -1.94478 l -0.0442,6.05535 -0.0442,6.05536 -2.01322,0.0238 c -1.56285,0.0184 -2.02268,-0.001 -2.05549,-0.0884 z"
         style="fill:#e4002b;fill-opacity:1;stroke-width:7.15655041;stroke-miterlimit:4;stroke-dasharray:none"
         inkscape:connector-curvature="0" />
      <path
         id="path2921"
         d="m 183.12953,114.43053 c -0.0234,-0.0612 -0.0323,-2.81639 -0.0197,-6.12252 l 0.0229,-6.01116 h 2.03319 2.03318 l 0.0442,3.97797 0.0442,3.97797 1.94479,0.0442 1.94478,0.0442 v 2.07738 2.07739 l -4.0025,0.023 c -3.1548,0.0181 -4.01151,-6.2e-4 -4.04505,-0.0884 z"
         style="fill:#e4002b;fill-opacity:1;stroke-width:7.15655041;stroke-miterlimit:4;stroke-dasharray:none"
         inkscape:connector-curvature="0" />
    </g>
    <g
       id="g6172">
      <path
         sodipodi:nodetypes="cccccccccscsccccccccccccccccccccc"
         inkscape:connector-curvature="0"
         id="path3697"
         d="m 113.23252,0.06433506 2.90539,5.19769104 2.90537,5.1976879 -5.0635,3.133405 -5.06349,3.133402 6.24007,10.603228 6.24008,10.603224 5.04633,-2.886448 c 3.06738,-1.754783 5.1922,-2.84894 5.41889,-2.790327 0.23893,0.06182 2.54502,3.693845 6.41843,10.10852 l 6.04534,10.011476 4.90197,-2.731344 c 2.9253,-1.629947 5.05379,-2.69154 5.27816,-2.633136 0.24553,0.06392 2.4894,3.642236 6.4687,10.315175 l 6.09251,10.216968 11.0746,-6.487581 c -3.10997,-5.203997 -3.03558,-5.187066 -6.4365,-10.671021 l -2.93697,-4.849913 c -1.94781,-3.216233 -2.90389,-4.980655 -2.83768,-5.237533 0.0615,-0.238692 1.92994,-1.523884 4.8675,-3.347249 l 4.76732,-2.9591 -15.43243,-26.2230189 -15.43244,-26.2230391 -5.13061,3.019402 -5.13058,3.019386 9.14545,15.8009241 9.14545,15.8009079 -5.1306,3.019385 -5.13059,3.019404 -9.37347,-15.6667279 -9.37347,-15.666726 -5.24462,3.086491 z"
         style="fill:#7eb6e1;fill-opacity:1;stroke-width:0.26458332" />
      <path
         inkscape:transform-center-y="19.445156"
         inkscape:transform-center-x="-18.950436"
         sodipodi:nodetypes="cccccccccscsccccccccccccccccccccc"
         inkscape:connector-curvature="0"
         id="path3697-6"
         d="m 194.10611,42.913514 -3.86383,4.530786 -3.86384,4.530786 -4.69795,-3.658757 -4.69793,-3.658761 -7.77334,9.536364 -7.77334,9.536366 4.46045,3.728479 c 2.7115,2.266225 4.47594,3.878313 4.49978,4.111252 0.0251,0.245512 -2.579,3.670187 -7.24747,9.531644 l -7.28618,9.148099 4.26481,3.64703 c 2.54507,2.17641 4.28027,3.80323 4.30349,4.03391 0.0254,0.25247 -2.54994,3.600118 -7.42379,9.650608 l -7.46243,9.26377 9.93227,8.12932 c 3.79865,-4.7248 3.80864,-4.64915 7.76863,-9.7441 l 3.5268,-4.43949 c 2.33873,-2.94422 3.66089,-4.45393 3.92474,-4.48114 0.24516,-0.0253 2.09963,1.27996 4.83034,3.40063 l 4.4316,3.44159 19.22435,-23.584558 19.22439,-23.584559 -4.61435,-3.761314 -4.61436,-3.761311 -11.63716,14.067166 -11.63716,14.067138 -4.61435,-3.76131 -4.61436,-3.761317 11.43205,-14.234327 11.43208,-14.234337 -4.71692,-3.844864 z"
         style="fill:#5277c3;fill-opacity:1;stroke-width:0.26458332" />
      <path
         sodipodi:nodetypes="cccccccccscsccccccccccccccccccccc"
         inkscape:connector-curvature="0"
         id="path3697-6-2"
         d="m 46.019425,45.901006 5.95457,0.02238 5.954548,0.02238 0.242152,5.949672 0.24216,5.949664 12.301029,-0.227094 12.30103,-0.227103 -0.0355,-5.813422 c -0.0218,-3.533775 0.0689,-5.922047 0.231259,-6.090714 0.171251,-0.177726 4.467619,-0.402405 11.95773,-0.625459 l 11.689937,-0.348133 0.0287,-5.61149 c 0.0171,-3.348688 0.13794,-5.72417 0.29904,-5.890911 0.17613,-0.182644 4.39535,-0.37933 12.16243,-0.567735 l 11.8921,-0.288255 -0.21113,-12.83321 c -6.06054,0.152696 -6.00926,0.09624 -12.45657,0.364913 l -5.66714,0.175937 c -3.75825,0.116795 -5.76477,0.08293 -5.95599,-0.100922 -0.17774,-0.170802 -0.37938,-2.429587 -0.52469,-5.883979 l -0.23586,-5.6060679 -30.421908,0.561644 -30.4219,0.561649 0.109881,5.9521119 0.1099,5.952104 18.255591,-0.204719 18.255578,-0.204721 0.109882,5.95213 0.1099,5.952106 -18.250702,0.469265 -18.25071,0.469257 0.112332,6.084374 z"
         style="fill:#5277c3;fill-opacity:1;stroke-width:0.26458332" />
      <path
         sodipodi:nodetypes="cccccccccscsccccccccccccccccccccc"
         inkscape:connector-curvature="0"
         id="path3697-6-2-9"
         d="m 123.3892,158.79831 -3.84134,-4.54986 -3.84134,-4.54987 4.37474,-4.03967 4.37472,-4.03966 -8.1437,-9.2221 -8.14371,-9.22208 -4.40485,3.79398 c -2.6774,2.30642 -4.555227,3.78489 -4.788925,3.77048 -0.246319,-0.0155 -3.20139,-3.14207 -8.224681,-8.70247 l -7.839909,-8.67822 -4.292671,3.61422 c -2.561649,2.15684 -4.449279,3.60403 -4.680659,3.58938 -0.253241,-0.016 -3.13699,-3.10199 -8.313352,-8.89581 l -7.925308,-8.87098 -9.637792,8.47637 c 4.043382,4.51716 3.967142,4.51467 8.349462,9.25126 l 3.806158,4.20244 c 2.524202,2.78685 3.79857,4.33709 3.782452,4.60186 -0.0155,0.246 -1.604682,1.86328 -4.14161,4.21231 l -4.117121,3.81221 20.14033,22.80731 20.140332,22.80731 4.462314,-3.9405 4.4623,-3.9405 -11.985044,-13.77197 -11.985051,-13.77195 4.462309,-3.94052 4.462301,-3.9405 12.183365,13.59682 12.18338,13.59683 4.56146,-4.02808 z"
         style="fill:#5277c3;fill-opacity:1;stroke-width:0.26458332" />
      <path
         sodipodi:nodetypes="cccccccccscsccccccccccccccccccccc"
         inkscape:connector-curvature="0"
         id="path3697-6-2-9-1"
         d="m 187.76302,125.00647 -5.95167,-0.18689 -5.95165,-0.1869 -0.0777,-5.95409 -0.0777,-5.95408 -12.30259,-0.11286 -12.30262,-0.11287 -0.12511,5.81219 c -0.0758,3.53304 -0.23245,5.91789 -0.39946,6.082 -0.17603,0.173 -4.47702,0.27881 -11.97043,0.29483 l -11.6951,0.025 -0.18374,5.60856 c -0.1096,3.34694 -0.29606,5.71817 -0.4617,5.8804 -0.18128,0.17756 -4.40415,0.25775 -12.17347,0.23147 l -11.89553,-0.0404 -0.14352,12.83414 c 6.06245,0.0148 6.00962,0.0698 12.46189,-0.0206 l 5.66983,-0.0193 c 3.76005,-0.0129 5.76487,0.0764 5.95093,0.26545 0.17291,0.17568 0.31214,2.43913 0.36195,5.89622 l 0.0809,5.61045 30.42578,0.2791 30.4258,0.27912 0.0546,-5.95288 0.0546,-5.95287 -18.25426,-0.29975 -18.25426,-0.29975 0.0546,-5.95288 0.0546,-5.95289 18.25667,0.0352 18.2567,0.0352 0.0558,-6.08517 z"
         style="fill:#7eb6e1;fill-opacity:1;stroke-width:0.26458332" />
      <path
         inkscape:transform-center-y="-23.54131"
         inkscape:transform-center-x="47.962261"
         sodipodi:nodetypes="cccccccccscsccccccccccccccccccccc"
         inkscape:connector-curvature="0"
         id="path3697-6-2-9-1-2"
         d="m 39.803159,128.11296 3.810246,-4.57594 3.810259,-4.57594 4.740701,3.60321 4.740688,3.60321 7.660531,-9.6272 7.660529,-9.6272 -4.504039,-3.67569 c -2.73799,-2.23416 -4.521301,-3.825348 -4.54787,-4.057998 -0.0275,-0.24529 2.535629,-3.70028 7.134799,-9.61628 l 7.178082,-9.233156 -4.307451,-3.596595 c -2.570501,-2.146276 -4.32472,-3.75258 -4.350649,-3.982979 -0.0283,-0.252143 2.507398,-3.629883 7.30971,-9.737313 l 7.35294,-9.350904 -10.027261,-8.011871 c -3.742809,4.769178 -3.753649,4.693676 -7.65342,9.834869 l -3.47427,4.480708 c -2.303949,2.971528 -3.608189,4.496724 -3.871719,4.527018 -0.24488,0.02812 -2.114582,-1.255143 -4.870022,-3.343558 l -4.471789,-3.389212 -18.945511,23.809133 -18.94549,23.809148 4.658312,3.70673 4.658312,3.70673 11.470822,-14.203118 11.470801,-14.20312 4.658333,3.70677 4.658281,3.70677 -11.263799,14.367858 -11.263781,14.36786 4.761833,3.7891 z"
         style="fill:#7eb6e1;fill-opacity:1;stroke-width:0.26458332" />
    </g>
  </g>
</svg>
