<?xml version="1.0" encoding="UTF-8"?>
<svg xmlns="http://www.w3.org/2000/svg" version="1.1" viewBox="0 0 1081.2 1090.1">
  <defs>
    <style>
      .cls-1 {
        fill: #5277c3;
      }

      .cls-2 {
        fill: #fff;
      }

      .cls-3 {
        fill: #7eb6e1;
      }

      .cls-4 {
        display: none;
      }
    </style>
  </defs>
  <!-- Generator: Adobe Illustrator 28.7.1, SVG Export Plug-In . SVG Version: 1.2.0 Build 142)  -->
  <g>
    <g id="Layer_1">
      <g id="Layer_1-2" data-name="Layer_1">
        <g id="Layer_2">
          <g>
            <polygon class="cls-1" points="348.4 737.2 286.1 772.5 355.4 894.6 293 930 362.3 1052.1 424.7 1016.8 459.3 1077.8 521.6 1042.4 417.7 859.3 480 823.9 584 1007.1 646.3 971.7 473.1 666.4 410.7 701.8 366.8 624.4 324.9 695.8 348.4 737.2"/>
            <polygon class="cls-3" points="339.9 511 385 434.2 302.2 433.6 278.1 474.7 216.3 438.4 145.2 559.4 83.4 523.1 12.3 644.2 74.1 680.5 38.6 741 100.4 777.3 207 595.7 268.8 632 162.2 813.6 224 849.9 314.5 695.7 319.8 686.7 361.7 615.4 367 606.4 401.7 547.3 339.9 511"/>
            <polygon class="cls-1" points="517.9 282.9 470.3 282.5 470.8 210.9 330.4 209.8 331 138.2 190.6 137.1 190.1 208.8 119.9 208.3 119.3 279.9 329.9 281.5 329.4 353.2 118.8 351.6 118.3 423.3 297.1 424.6 307.5 424.7 390.2 425.3 400.6 425.4 469.2 425.9 469.8 354.2 558.7 354.9 517.9 282.9"/>
            <polygon class="cls-3" points="795.1 317.5 725.8 195.4 788.2 160.1 718.9 38 656.5 73.3 621.9 12.3 559.6 47.6 663.5 230.8 601.2 266.2 497.2 83 434.9 118.4 523.2 273.9 528.3 283 569.1 354.9 574.3 364 608.1 423.7 670.5 388.3 714.4 465.7 756.3 394.3 732.8 352.9 795.1 317.5"/>
            <polygon class="cls-1" points="1007.1 409.6 1042.6 349.1 980.8 312.8 874.2 494.4 812.4 458.1 919 276.5 857.2 240.2 766.7 394.4 761.4 403.3 719.5 474.7 714.2 483.7 679.5 542.8 741.3 579.1 696.2 655.8 779 656.4 803.1 615.4 864.9 651.7 936 530.6 997.8 566.9 1068.9 445.9 1007.1 409.6"/>
            <polygon class="cls-3" points="522.5 735.2 537.2 761.3 522.5 735.2 522.5 735.2"/>
            <polygon class="cls-3" points="962.4 738.5 962.9 666.8 784.1 665.5 773.7 665.4 691 664.8 680.6 664.7 612 664.2 611.4 735.9 522.5 735.2 537.2 761.3 563.3 807.2 610.9 807.5 610.4 879.2 750.8 880.3 750.2 951.9 890.6 953 891.2 881.3 961.3 881.8 961.9 810.2 751.3 808.6 751.8 736.9 962.4 738.5"/>
            <path class="cls-2" d="M1073.4,438.1l-54-31.7,31-52.8,4.6-7.8-7.8-4.6-61.8-36.3-7.8-4.6-4.6,7.8-102.1,173.8-46.3-27.2,102.1-173.8,4.6-7.8-7.8-4.6-61.8-36.3-7.8-4.6-4.6,7.8-46,78.4-.5-.9-64.9-114.3,54.5-30.9,7.8-4.4-4.4-7.8-69.3-122.1-4.4-7.8-7.8,4.4-54.5,30.9-30.2-53.2-4.4-7.8-7.8,4.4-62.3,35.4-7.8,4.4,4.4,7.8,99.5,175.3-46.7,26.5-99.5-175.3-4.4-7.8-7.8,4.4-62.3,35.4-7.8,4.4,4.4,7.8,44.9,79h-1l-131.4-1,.5-62.7v-9h-8.9l-140.4-1h-9v8.9l-.5,62.7-61.2-.5h-9v8.9l-.5,71.7v9h8.9l201.6,1.5-.4,53.7-201.6-1.5h-9v8.9l-.5,71.7v9h8.9l90.9.7-.5.9-66.5,113.3-54-31.7-7.8-4.6-4.6,7.8L4.6,639.6l-4.6,7.8,7.8,4.6,54,31.7-31,52.8-4.6,7.8,7.8,4.6,61.8,36.3,7.8,4.6,4.6-7.8,102.1-173.8,46.3,27.2-102.1,173.8-4.6,7.8,7.8,4.6,61.8,36.3,7.8,4.6,4.6-7.8,46-78.4.5.9,64.9,114.3-54.5,30.9-7.8,4.4,4.4,7.8,69.3,122.1,4.4,7.8,7.8-4.4,54.5-30.9,30.2,53.2,4.4,7.8,7.8-4.4,62.3-35.4,7.8-4.4-4.4-7.8-99.5-175.3,46.7-26.5,99.5,175.3,4.4,7.8,7.8-4.4,62.3-35.4,7.8-4.4-4.4-7.8-44.9-79h1l131.4,1-.5,62.7v9h8.9l140.4,1h9v-8.9l.5-62.7,61.2.5h9v-8.9l.5-71.7v-9h-8.9l-201.6-1.5.4-53.7,201.6,1.5h9v-8.9l.5-71.7v-9h-8.9l-90.9-.7.5-.9,66.5-113.3,54,31.7,7.8,4.6,4.6-7.8,71.1-121.1,4.6-7.8-7.8-4.6.3-.2h0ZM434.9,118.4l62.3-35.4,103.9,183.2,62.3-35.4-103.9-183.2,62.3-35.4,34.6,61.1,62.3-35.4,69.3,122.1-62.3,35.4,69.3,122.1-62.3,35.4,23.5,41.4-41.9,71.4-43.9-77.4-62.3,35.4-33.9-59.7-5.1-9-40.8-72-5.1-9-88.3-155.5h0ZM795.4,327.8l-33.8,57.6-16.5-29,50.3-28.5h0ZM674.9,550.6l54,31.7-43.1,73.4-73.8-.5h-9v8.9l-.5,62.7-85.2-.6-36.4-64.2-4.4-7.8-7.8,4.4-54.5,30.9-42-74.1,37.4-63.6,4.6-7.8-7.8-4.6-54-31.7,43.1-73.4,73.8.5h9v-8.9l.5-62.7,85.2.6,36.4,64.2,4.4,7.8,7.8-4.4,54.5-30.9,42,74.1-37.4,63.6-4.6,7.8,7.8,4.6h0ZM512.8,273.9l-33.4-.2.4-57.8,33,58.1h0ZM118.3,423.3l.5-71.7,210.6,1.6.5-71.7-210.6-1.6.5-71.7,70.2.5.5-71.7,140.4,1-.5,71.7,140.4,1-.5,71.7,47.6.4,40.8,72-89-.7-.5,71.7-68.6-.5h-10.4l-82.8-.7h-10.4l-178.8-1.4h0ZM291.8,433.6l-16.9,28.8-49.9-29.3,66.8.5ZM224,849.9l-61.8-36.3,106.7-181.6-61.8-36.3-106.7,181.6-61.8-36.3,35.6-60.5-61.8-36.3,71.1-121.1,61.8,36.3,71.1-121.1,61.8,36.3,24.1-41,82.8.6-45.1,76.7,61.8,36.3-34.7,59.2-5.3,9-41.9,71.4-5.3,9-90.6,154.2h0ZM319.7,704.7l16.5,29-50.3,28.5,33.8-57.6h0ZM646.3,971.7l-62.3,35.4-103.9-183.2-62.3,35.4,103.9,183.2-62.3,35.4-34.6-61.1-62.3,35.4-69.3-122.1,62.3-35.4-69.3-122.1,62.3-35.4-23.5-41.4,41.9-71.4,43.9,77.4,62.3-35.4,173.2,305.3ZM568.4,816.2l33.4.2-.4,57.8-33-58.1h0ZM962.9,666.8l-.5,71.7-210.6-1.6-.5,71.7,210.6,1.6-.5,71.7-70.2-.5-.5,71.7-140.4-1,.5-71.7-140.4-1,.5-71.7-47.6-.4-26.1-45.9-14.8-26,89,.7.5-71.7,68.6.5h10.4l82.8.7h10.4l178.8,1.4v-.2h0ZM789.4,656.5l16.9-28.8,49.9,29.3-66.8-.5h0ZM997.8,566.9l-61.8-36.3-71.1,121.1-61.8-36.3-24.1,41-82.8-.6,45.1-76.7-61.8-36.3,34.7-59.2,5.3-9,41.9-71.4,5.3-9,90.6-154.2,61.8,36.3-106.7,181.6,61.8,36.3,106.7-181.6,61.8,36.3-35.6,60.5,61.8,36.3-71.1,121.1h0Z"/>
          </g>
        </g>
        <g id="logo" class="cls-4">
          <g id="_Radiale_Wiederholung_">
            <path class="cls-1" d="M529.5,925.7l51.7,90.4,29.6-16.7,29.6-16.7-85.1-151.3-85.1-151.3-28.3,15c-16.9,9-28.4,14.4-30.3,14.4h-.2c-1.5-.4-7.4-10.2-17.7-29l-15.5-28.4c-4.4-8.2-11.5-21.2-20.1-36.6,0,0-43.3,72.8-43,73.2,20.2,36.5,30.8,56.6,30.4,58-.4,1.3-11.7,8.7-28.1,18.5l-27.5,16.3,32,58.5c20.5,37.5,31.8,59.3,31.5,60.7-.4,1.3-11.9,8.6-29.3,18.7l-28.7,16.6,34.4,61.2,34.4,61.2,30-16,30-16,17.3,29.2,17.3,29.2,30.3-17,30.3-17-50.4-91.2-50.4-91,29.6-16.7,29.6-16.7,51.7,90.5h0Z"/>
          </g>
          <g id="_Radiale_Wiederholung_-2">
            <path class="cls-3" d="M205.3,725.8l-52.4,90,29.2,17.3,29.2,17.3,88.5-149.4,88.5-149.4-27.1-17c-16.2-10.1-26.7-17.3-27.6-19h-.1c-.4-1.5,5.1-11.5,16.3-29.8l16.8-27.7c4.9-7.9,12.6-20.6,21.6-35.7,0,0-84.7-1.1-84.9-.6-21.5,35.8-33.6,54.9-35,55.3-1.3.3-13.4-5.8-30.1-15.1l-27.9-15.7-34.7,57c-22.2,36.5-35.4,57.2-36.8,57.6-1.3.3-13.4-6-30.9-16l-28.8-16.6-35.8,60.4-35.6,60.4,28.9,18,28.8,18-16.7,29.6-16.7,29.6,29.9,17.7,29.9,17.7,53.8-89.2,53.8-89.2,29.2,17.3,29.2,17.3-52.5,90h0Z"/>
          </g>
          <g id="_Radiale_Wiederholung_-3">
            <path class="cls-1" d="M216.4,345l-104.2-.4-.4,34-.4,34,173.6,2,173.6,2,1.1-32c.7-19.1,1.7-31.8,2.6-33.5,0-.1.1-.1.1-.1,1.1-1.1,12.5-1.3,34-.8l32.4.8c9.3.3,24.2.6,41.7.9,0,0-41.4-73.9-41.9-73.8-41.8-.7-64.4-1.7-65.4-2.7s-1.7-14.5-2-33.6l-.4-32-66.7-1.5c-42.8-1-67.3-2.1-68.3-3.1-.9-1-1.5-14.6-1.6-34.8v-33.2l-70.2-.8-70.2-.8-1.1,34-1.1,34-34,.4-34,.4-.4,34.7-.4,34.7,104.2,1.9,104.2,1.9-.4,34-.4,34-104-.6h0Z"/>
          </g>
          <g id="_Radiale_Wiederholung_-4">
            <path class="cls-3" d="M551.7,164.3l-51.7-90.4-29.6,16.7-29.6,16.7,85.1,151.3,85.1,151.3,28.3-15c16.8-9,28.3-14.4,30.3-14.4h.2c1.5.4,7.4,10.2,17.7,29l15.5,28.4c4.4,8.2,11.5,21.2,20.1,36.6,0,0,43.3-72.8,43-73.2-20.2-36.5-30.8-56.6-30.4-58,.4-1.3,11.7-8.7,28.1-18.5l27.5-16.4-32-58.5c-20.5-37.5-31.8-59.3-31.5-60.6.4-1.3,11.8-8.6,29.3-18.7l28.7-16.6-34.4-61.2-34.4-61.2-30,16-30,16-17.4-29.4-17.2-29.2-30.3,17-30.3,17,50.4,91.2,50.4,91.2-29.6,16.6-29.6,16.6-51.7-90.3h0Z"/>
          </g>
          <g id="_Radiale_Wiederholung_-5">
            <path class="cls-1" d="M875.9,364.2l52.5-90-29.2-17.3-29.2-17.3-88.6,149.4-88.5,149.4,27.2,17c16.2,10.1,26.7,17.3,27.7,19v.2c.4,1.5-5.1,11.5-16.3,29.8l-17,27.6c-4.9,7.9-12.6,20.6-21.7,35.7,0,0,84.7,1.1,84.8.7,21.5-35.8,33.6-54.9,35-55.3,1.3-.3,13.4,5.8,30.1,15.1l27.9,15.7,34.7-57c22.2-36.5,35.4-57.2,36.8-57.6,1.3-.3,13.4,6,30.9,16l28.8,16.6,35.8-60.4,35.8-60.4-28.8-18-28.8-18,16.7-29.6,16.7-29.6-29.9-17.7-29.9-17.7-53.9,89.1-53.8,89.2-29.2-17.3-29.2-17.3,52.5-90h.1Z"/>
          </g>
          <g id="_Radiale_Wiederholung_-6">
            <path class="cls-3" d="M864.8,745l104.2.4.4-34,.4-34-173.6-2-173.6-2-1.1,32c-.7,19.1-1.7,31.8-2.7,33.5h0c-1.1,1.1-12.5,1.3-34,.8l-32.3-.8c-9.3-.3-24.2-.6-41.7-.9,0,0,41.4,73.9,41.9,73.8,41.8.7,64.4,1.7,65.4,2.7s1.7,14.5,2,33.6l.4,32,66.7,1.5c42.8,1,67.3,2.1,68.3,3.1.9,1,1.5,14.6,1.6,34.8v33.2l70.2.8,70.2.8,1.1-34,1.1-34,34-.4,34-.4.4-34.7.4-34.7-104.2-1.9-104.2-1.9.4-34,.4-34,104,.6h-.1Z"/>
          </g>
        </g>
      </g>
    </g>
  </g>
</svg>