<?xml version="1.0" encoding="UTF-8" standalone="no"?>
<!-- Created with Inkscape (http://www.inkscape.org/) -->

<svg
   xmlns:dc="http://purl.org/dc/elements/1.1/"
   xmlns:cc="http://creativecommons.org/ns#"
   xmlns:rdf="http://www.w3.org/1999/02/22-rdf-syntax-ns#"
   xmlns:svg="http://www.w3.org/2000/svg"
   xmlns="http://www.w3.org/2000/svg"
   xmlns:sodipodi="http://sodipodi.sourceforge.net/DTD/sodipodi-0.dtd"
   xmlns:inkscape="http://www.inkscape.org/namespaces/inkscape"
   width="180.79878mm"
   height="195.89212mm"
   viewBox="0 0 180.79878 195.89212"
   version="1.1"
   id="svg6241"
   inkscape:version="0.92.4 (5da689c313, 2019-01-14)"
   sodipodi:docname="krebs-arm-snowflake.svg">
  <defs
     id="defs6235" />
  <sodipodi:namedview
     id="base"
     pagecolor="#ffffff"
     bordercolor="#666666"
     borderopacity="1.0"
     inkscape:pageopacity="0.0"
     inkscape:pageshadow="2"
     inkscape:zoom="0.49497475"
     inkscape:cx="69.817892"
     inkscape:cy="370.18984"
     inkscape:document-units="mm"
     inkscape:current-layer="layer1"
     showgrid="false"
     fit-margin-top="0"
     fit-margin-left="0"
     fit-margin-right="0"
     fit-margin-bottom="0"
     inkscape:window-width="1366"
     inkscape:window-height="746"
     inkscape:window-x="0"
     inkscape:window-y="22"
     inkscape:window-maximized="0" />
  <metadata
     id="metadata6238">
    <rdf:RDF>
      <cc:Work
         rdf:about="">
        <dc:format>image/svg+xml</dc:format>
        <dc:type
           rdf:resource="http://purl.org/dc/dcmitype/StillImage" />
        <dc:title />
      </cc:Work>
    </rdf:RDF>
  </metadata>
  <g
     inkscape:label="Layer 1"
     inkscape:groupmode="layer"
     id="layer1"
     transform="translate(-15.43394,-50.887271)">
    <path
       style="fill:#5277c3;fill-opacity:1;stroke-width:0.26458332"
       d="m 93.500569,242.01687 -3.1118,-5.0768 -3.1118,-5.07679 -5.21003,2.88322 -5.21001,2.88322 -6.1949,-10.62968 -6.1949,-10.62968 4.98624,-2.98908 c 3.0311,-1.81675 5.02489,-3.13464 5.08467,-3.36102 0.0627,-0.23871 -1.97656,-4.02675 -5.67612,-10.54324 l -5.77405,-10.17036 4.78034,-2.93904 c 2.85273,-1.75384 4.8199,-3.09092 4.87872,-3.31517 0.0644,-0.24543 -1.95868,-3.95306 -5.8318,-10.68819 l -5.9302,-10.31202 11.07618,-6.4849 c 3.01728,5.25829 3.0389,5.18513 6.1579,10.8342 l 2.79308,4.93416 c 1.85217,3.27226 2.92329,4.96929 3.17967,5.03724 0.2384,0.0626 2.27325,-0.93767 5.30064,-2.60764 l 4.91312,-2.71016 15.320641,26.28849 15.32064,26.28849 -5.14342,2.9975 -5.14342,2.9975 -9.30669,-15.7065 -9.306691,-15.7065 -5.14343,2.99751 -5.1434,2.99748 9.07809,15.83972 9.078111,15.83972 -5.257751,3.06408 z"
       id="path3697-6-2-9-6"
       inkscape:connector-curvature="0"
       sodipodi:nodetypes="cccccccccscsccccccccccccccccccccc"
       inkscape:transform-center-x="19.243406"
       inkscape:transform-center-y="8.5526249" />
    <path
       style="fill:#7eb6e1;fill-opacity:1;stroke-width:0.26458332"
       d="m 21.828269,180.2747 2.81398,-5.24774 2.81397,-5.24774 -5.11754,-3.04433 -5.11754,-3.04433 6.05356,-10.71079 6.05356,-10.71082 5.09606,2.79775 c 3.0976,1.70088 5.24127,2.75764 5.4669,2.69506 0.23783,-0.066 2.47996,-3.73781 6.24055,-10.2193 l 5.86919,-10.11574 4.94903,2.64516 c 2.95333,1.57853 5.1001,2.60268 5.32341,2.54035 0.24442,-0.0682 2.42531,-3.68525 6.2872,-10.42681 l 5.91278,-10.32203 11.18646,6.29277 c -3.01842,5.25765 -2.94437,5.2394 -6.2488,10.78203 l -2.85163,4.90057 c -1.89119,3.24985 -2.81626,5.03071 -2.74557,5.28637 0.0657,0.23758 1.95628,1.48989 4.92531,3.26156 l 4.81834,2.87529 -14.97117,26.48903 -14.97118,26.48908 -5.18265,-2.92915 -5.18264,-2.92915 8.86754,-15.95853 8.86754,-15.95853 -5.18264,-2.92915 -5.18266,-2.92916 -9.09784,15.82833 -9.09788,15.82837 -5.29781,-2.99426 z"
       id="path3697-6-2-9-1-1-3"
       inkscape:connector-curvature="0"
       sodipodi:nodetypes="cccccccccscsccccccccccccccccccccc" />
    <path
       style="fill:#5277c3;fill-opacity:1;stroke-width:0.26458332"
       d="m 29.18696,88.599248 5.95456,-0.0224 5.95455,-0.0224 0.24215,-5.94967 0.24216,-5.94966 12.30103,0.22709 12.30103,0.2271 -0.0355,5.81343 c -0.0218,3.53377 0.0689,5.92204 0.23126,6.09071 0.17125,0.17773 4.46762,0.4024 11.95773,0.62546 l 11.68993,0.34813 0.0287,5.61149 c 0.0171,3.34869 0.13795,5.724172 0.29904,5.890912 0.17614,0.18265 4.39537,0.37933 12.16243,0.56774 l 11.8921,0.28825 -0.21111,12.83321 c -6.06056,-0.15269 -6.00927,-0.0962 -12.45657,-0.36491 l -5.66714,-0.17594 c -3.75825,-0.11679 -5.76479,-0.0829 -5.956,0.10092 -0.17774,0.17081 -0.37939,2.42959 -0.5247,5.88398 l -0.23585,5.60607 -30.42191,-0.56164 -30.42189,-0.56165 0.10987,-5.95211 0.1099,-5.95211 18.25559,0.20472 18.25558,0.20472 0.10988,-5.95213 0.1099,-5.9521 -18.2507,-0.46927 -18.25071,-0.46926 0.11234,-6.084372 z"
       id="path3697-6-2-2"
       inkscape:connector-curvature="0"
       sodipodi:nodetypes="cccccccccscsccccccccccccccccccccc" />
    <path
       style="fill:#7eb6e1;fill-opacity:1;stroke-width:0.26458332"
       d="m 117.15947,50.887271 3.02179,5.13089 3.02179,5.13089 5.26004,-2.7909 5.26005,-2.79088 6.00646,10.73728 6.00645,10.73728 -5.03815,2.90069 c -3.06291,1.7626 -5.07941,3.04553 -5.14316,3.27084 -0.0672,0.23747 1.9052,4.061 5.48934,10.6417 l 5.5938,10.270599 -4.83141,2.85431 c -2.8832,1.7033 -4.87364,3.00543 -4.93641,3.22862 -0.0687,0.24425 1.88869,3.98697 5.64239,10.78937 l 5.74742,10.41499 -11.18882,6.28858 c -2.92402,-5.31072 -2.94698,-5.23792 -5.96588,-10.9411 l -2.7056,-4.98269 c -1.79417,-3.3044 -2.83517,-5.02007 -3.09035,-5.09252 -0.23712,-0.0674 -2.28942,0.89744 -5.34581,2.51378 l -4.96012,2.62312 -14.85467,-26.554579 -14.85467,-26.5546 5.19549,-2.90632 5.19548,-2.90631 9.02827,15.86817 9.02824,15.86816 5.19548,-2.90631 5.19548,-2.90632 -8.79734,-15.99735 -8.79736,-15.99733 5.31095,-2.9709 z"
       id="path3697-60"
       inkscape:connector-curvature="0"
       sodipodi:nodetypes="cccccccccscsccccccccccccccccccccc"
       inkscape:transform-center-x="-7.032597"
       inkscape:transform-center-y="3.049586" />
    <path
       style="fill:#5277c3;fill-opacity:1;stroke-width:0.26458332"
       d="m 190.97572,112.30807 -2.60503,5.35451 -2.60503,5.35454 5.23352,2.84032 5.23354,2.8403 -5.62688,10.94099 -5.62689,10.94099 -5.20232,-2.59475 c -3.16222,-1.5775 -5.34585,-2.549 -5.56885,-2.47758 -0.23503,0.0753 -2.33078,3.83264 -5.83307,10.45722 l -5.4661,10.33915 -5.04939,-2.44813 c -3.01328,-1.46091 -5.19871,-2.39973 -5.41939,-2.32866 -0.24153,0.0778 -2.27819,3.77794 -5.87151,10.66642 l -5.50155,10.54696 -11.42569,-5.84715 c 2.80892,-5.37247 2.7356,-5.35135 5.81913,-11.01984 l 2.65629,-5.00916 c 1.76173,-3.32179 2.61587,-5.13776 2.53517,-5.39045 -0.0749,-0.23481 -2.01348,-1.41164 -5.04999,-3.06497 l -4.9279,-2.68321 13.91594,-27.05833 13.91594,-27.058369 5.29403,2.72266 5.29404,2.722649 -8.23193,16.29554 -8.2319,16.29551 5.29403,2.72266 5.29405,2.72264 8.46722,-16.17449 8.46723,-16.1745 5.41166,2.78319 z"
       id="path3697-6-6"
       inkscape:connector-curvature="0"
       sodipodi:nodetypes="cccccccccscsccccccccccccccccccccc"
       inkscape:transform-center-x="19.100031"
       inkscape:transform-center-y="-6.590479" />
    <path
       style="fill:#7eb6e1;fill-opacity:1;stroke-width:0.99999994"
       d="M 638.4375 475.1582 L 523.44336 476.21289 L 408.44727 477.26758 L 408.14258 498.47266 C 407.95436 511.53882 407.42692 520.09383 406.77344 520.75781 C 406.07018 521.47233 398.49442 521.80852 384.2832 521.75977 L 362.85352 521.6875 C 350.11039 521.50896 343.83514 521.48438 337.71289 521.50586 L 356.38086 553.53516 L 365.95508 569.96484 C 392.02194 569.91701 406.6218 570.20924 407.26562 570.83984 C 407.89167 571.453 408.59545 580.4146 409.00977 593.06445 L 409.70508 614.26172 L 453.90625 614.35547 C 482.22788 614.41602 498.48313 614.81684 499.14844 615.4707 C 499.77966 616.09096 500.37171 625.10381 500.6582 638.45703 L 501.13086 660.42578 L 547.62891 659.99805 L 594.12695 659.57227 L 594.42188 637.06836 L 594.71484 614.56445 L 617.20898 613.85742 L 639.70312 613.15234 L 639.49219 590.15234 L 639.28125 567.1543 L 570.2793 567.28711 L 501.2793 567.41992 L 501.07227 544.91992 L 500.86523 522.42188 L 569.85742 521.28906 L 638.85156 520.15625 L 638.64453 497.65625 L 638.4375 475.1582 z "
       transform="matrix(0.26458333,0,0,0.26458333,15.43394,50.887271)"
       id="path3697-6-2-9-1-1" />
  </g>
</svg>
