<?xml version="1.0" encoding="utf-8"?>
<!-- Generator: Adobe Illustrator 26.4.0, SVG Export Plug-In . SVG Version: 6.00 Build 0)  -->
<svg version="1.1" id="logo" xmlns="http://www.w3.org/2000/svg" xmlns:xlink="http://www.w3.org/1999/xlink" x="0px" y="0px"
	 viewBox="0 0 1080 1080" style="enable-background:new 0 0 1080 1080;" xml:space="preserve">
<style type="text/css">
	.st0{fill:#5277C3;}
	.st1{fill:#7EB6E1;}
</style>
<g id="_Radiale_Wiederholung_">
	<path class="st0" d="M528.9,920.7l51.7,90.4l29.6-16.7l29.6-16.7l-85.1-151.3l-85.1-151.3l-28.3,15c-16.9,9-28.4,14.4-30.3,14.4
		c-0.1,0-0.1,0-0.2,0c-1.5-0.4-7.4-10.2-17.7-29l-15.5-28.4c-4.4-8.2-11.5-21.2-20.1-36.6c0,0-43.3,72.8-43,73.2
		c20.2,36.5,30.8,56.6,30.4,58c-0.4,1.3-11.7,8.7-28.1,18.5l-27.5,16.3l32,58.5c20.5,37.5,31.8,59.3,31.5,60.7
		c-0.4,1.3-11.9,8.6-29.3,18.7l-28.7,16.6l34.4,61.2l34.4,61.2l30-16l30-16l17.3,29.2l17.3,29.2l30.3-17l30.3-17l-50.4-91.2
		L418,863.6l29.6-16.7l29.6-16.7L528.9,920.7L528.9,920.7z"/>
</g>
<g id="_Radiale_Wiederholung_-2">
	<path class="st1" d="M204.7,720.8l-52.4,90l29.2,17.3l29.2,17.3L299.2,696l88.5-149.4l-27.1-17c-16.2-10.1-26.7-17.3-27.6-19
		c0-0.1,0-0.1-0.1-0.1c-0.4-1.5,5.1-11.5,16.3-29.8L366,453c4.9-7.9,12.6-20.6,21.6-35.7c0,0-84.7-1.1-84.9-0.6
		c-21.5,35.8-33.6,54.9-35,55.3c-1.3,0.3-13.4-5.8-30.1-15.1l-27.9-15.7l-34.7,57c-22.2,36.5-35.4,57.2-36.8,57.6
		c-1.3,0.3-13.4-6-30.9-16l-28.8-16.6l-35.8,60.4L7.1,644L36,662l28.8,18l-16.7,29.6l-16.7,29.6l29.9,17.7l29.9,17.7l53.8-89.2
		l53.8-89.2l29.2,17.3l29.2,17.3L204.7,720.8L204.7,720.8z"/>
</g>
<g id="_Radiale_Wiederholung_-3">
	<path class="st0" d="M215.8,340l-104.2-0.4l-0.4,34l-0.4,34l173.6,2l173.6,2l1.1-32c0.7-19.1,1.7-31.8,2.6-33.5
		c0-0.1,0.1-0.1,0.1-0.1c1.1-1.1,12.5-1.3,34-0.8l32.4,0.8c9.3,0.3,24.2,0.6,41.7,0.9c0,0-41.4-73.9-41.9-73.8
		c-41.8-0.7-64.4-1.7-65.4-2.7c-0.9-0.9-1.7-14.5-2-33.6l-0.4-32l-66.7-1.5c-42.8-1-67.3-2.1-68.3-3.1c-0.9-1-1.5-14.6-1.6-34.8
		l0-33.2l-70.2-0.8l-70.2-0.8l-1.1,34l-1.1,34l-34,0.4l-34,0.4l-0.4,34.7l-0.4,34.7l104.2,1.9l104.2,1.9l-0.4,34l-0.4,34L215.8,340
		L215.8,340z"/>
</g>
<g id="_Radiale_Wiederholung_-4">
	<path class="st1" d="M551.1,159.3l-51.7-90.4l-29.6,16.7l-29.6,16.7l85.1,151.3l85.1,151.3l28.3-15c16.8-9,28.3-14.4,30.3-14.4
		c0.1,0,0.1,0,0.2,0c1.5,0.4,7.4,10.2,17.7,29l15.5,28.4c4.4,8.2,11.5,21.2,20.1,36.6c0,0,43.3-72.8,43-73.2
		c-20.2-36.5-30.8-56.6-30.4-58c0.4-1.3,11.7-8.7,28.1-18.5l27.5-16.4l-32-58.5c-20.5-37.5-31.8-59.3-31.5-60.6
		c0.4-1.3,11.8-8.6,29.3-18.7l28.7-16.6l-34.4-61.2l-34.4-61.2l-30,16l-30,16L639,29.2L621.8,0l-30.3,17l-30.3,17l50.4,91.2
		l50.4,91.2L632.4,233l-29.6,16.6L551.1,159.3L551.1,159.3z"/>
</g>
<g id="_Radiale_Wiederholung_-5">
	<path class="st0" d="M875.3,359.2l52.5-90l-29.2-17.3l-29.2-17.3L780.8,384l-88.5,149.4l27.2,17c16.2,10.1,26.7,17.3,27.7,19
		c0,0.1,0,0.1,0.1,0.2c0.4,1.5-5.1,11.5-16.3,29.8L714,627c-4.9,7.9-12.6,20.6-21.7,35.7c0,0,84.7,1.1,84.8,0.7
		c21.5-35.8,33.6-54.9,35-55.3c1.3-0.3,13.4,5.8,30.1,15.1l27.9,15.7l34.7-57c22.2-36.5,35.4-57.2,36.8-57.6c1.3-0.3,13.4,6,30.9,16
		l28.8,16.6l35.8-60.4l35.8-60.4l-28.8-18l-28.8-18l16.7-29.6l16.7-29.6l-29.9-17.7l-29.9-17.7L935,394.6l-53.8,89.2l-29.2-17.3
		l-29.2-17.3L875.3,359.2L875.3,359.2z"/>
</g>
<g id="_Radiale_Wiederholung_-6">
	<path class="st1" d="M864.2,740l104.2,0.4l0.4-34l0.4-34l-173.6-2l-173.6-2l-1.1,32c-0.7,19.1-1.7,31.8-2.7,33.5
		c0,0.1-0.1,0.1-0.1,0.1c-1.1,1.1-12.5,1.3-34,0.8l-32.3-0.8c-9.3-0.3-24.2-0.6-41.7-0.9c0,0,41.4,73.9,41.9,73.8
		c41.8,0.7,64.4,1.7,65.4,2.7c0.9,0.9,1.7,14.5,2,33.6l0.4,32l66.7,1.5c42.8,1,67.3,2.1,68.3,3.1c0.9,1,1.5,14.6,1.6,34.8l0,33.2
		l70.2,0.8l70.2,0.8l1.1-34l1.1-34l34-0.4l34-0.4l0.4-34.7l0.4-34.7l-104.2-1.9l-104.2-1.9l0.4-34l0.4-34L864.2,740L864.2,740z"/>
</g>
</svg>
